<?xml version="1.0" encoding="UTF-8"?>
<svg xmlns="http://www.w3.org/2000/svg" xmlns:xlink="http://www.w3.org/1999/xlink" width="595pt" height="791pt" viewBox="0 0 595 791" version="1.1">
<defs>
<clipPath id="clip1">
  <path d="M 20 87.589844 L 574.996094 87.589844 L 574.996094 703.410156 L 20 703.410156 Z M 20 87.589844 "/>
</clipPath>
</defs>
<g id="surface1">
<g clip-path="url(#clip1)" clip-rule="nonzero">
<path style=" stroke:none;fill-rule:nonzero;fill:rgb(100%,100%,100%);fill-opacity:1;" d="M 20 87.589844 L 574.996094 87.589844 L 574.996094 703.410156 L 20 703.410156 Z M 20 87.589844 "/>
</g>
<path style=" stroke:none;fill-rule:nonzero;fill:rgb(0%,0%,0%);fill-opacity:1;" d="M 305.101562 197.914062 L 122.589844 303.292969 C 115.316406 307.492188 106.015625 304.996094 101.820312 297.730469 C 97.625 290.453125 100.109375 281.15625 107.386719 276.957031 L 289.894531 171.578125 C 297.171875 167.378906 306.46875 169.875 310.667969 177.140625 C 314.863281 184.417969 312.378906 193.714844 305.101562 197.914062 Z M 305.101562 197.914062 "/>
<path style=" stroke:none;fill-rule:nonzero;fill:rgb(0%,0%,0%);fill-opacity:1;" d="M 168.207031 327.273438 C 168.207031 318.878906 161.402344 312.066406 153 312.066406 C 144.601562 312.066406 137.796875 318.878906 137.796875 327.273438 L 137.796875 463.726562 C 137.796875 472.121094 144.601562 478.929688 153 478.929688 C 161.402344 478.929688 168.207031 472.121094 168.207031 463.726562 Z M 130.195312 290.125 C 130.195312 281.726562 123.390625 274.921875 114.988281 274.921875 C 106.585938 274.921875 99.78125 281.726562 99.78125 290.125 L 99.78125 500.871094 C 99.78125 509.273438 106.585938 516.078125 114.988281 516.078125 C 123.390625 516.078125 130.195312 509.273438 130.195312 500.871094 Z M 130.195312 290.125 "/>
<path style=" stroke:none;fill-rule:nonzero;fill:rgb(0%,0%,0%);fill-opacity:1;" d="M 122.589844 487.703125 L 305.101562 593.085938 C 312.378906 597.28125 314.863281 606.582031 310.667969 613.855469 C 306.46875 621.125 297.171875 623.617188 289.894531 619.421875 L 107.386719 514.039062 C 100.109375 509.84375 97.625 500.546875 101.820312 493.269531 C 106.015625 486 115.316406 483.507812 122.589844 487.703125 Z M 122.589844 487.703125 "/>
<path style=" stroke:none;fill-rule:nonzero;fill:rgb(0%,0%,0%);fill-opacity:1;" d="M 303.0625 541.585938 C 295.789062 545.78125 293.300781 555.078125 297.5 562.355469 C 301.695312 569.632812 310.992188 572.117188 318.269531 567.921875 L 436.429688 499.703125 C 443.707031 495.496094 446.191406 486.199219 441.996094 478.929688 C 437.796875 471.65625 428.5 469.160156 421.226562 473.367188 Z M 289.894531 593.085938 C 282.621094 597.28125 280.132812 606.582031 284.332031 613.855469 C 288.527344 621.125 297.824219 623.617188 305.101562 619.421875 L 487.613281 514.039062 C 494.886719 509.84375 497.375 500.546875 493.175781 493.269531 C 488.980469 486 479.683594 483.507812 472.40625 487.703125 Z M 289.894531 593.085938 "/>
<path style=" stroke:none;fill-rule:nonzero;fill:rgb(0%,0%,0%);fill-opacity:1;" d="M 464.804688 500.871094 L 464.804688 290.125 C 464.804688 281.726562 471.609375 274.921875 480.007812 274.921875 C 488.410156 274.921875 495.214844 281.726562 495.214844 290.125 L 495.214844 500.871094 C 495.214844 509.273438 488.410156 516.078125 480.007812 516.078125 C 471.609375 516.078125 464.804688 509.273438 464.804688 500.871094 Z M 464.804688 500.871094 "/>
<path style=" stroke:none;fill-rule:nonzero;fill:rgb(0%,0%,0%);fill-opacity:1;" d="M 305.101562 171.578125 C 297.824219 167.378906 288.527344 169.875 284.332031 177.140625 C 280.132812 184.417969 282.621094 193.714844 289.894531 197.914062 L 472.40625 303.292969 C 479.683594 307.492188 488.980469 304.996094 493.175781 297.730469 C 497.375 290.453125 494.886719 281.15625 487.613281 276.957031 Z M 318.269531 223.078125 C 310.992188 218.882812 301.695312 221.367188 297.5 228.644531 C 293.300781 235.917969 295.789062 245.214844 303.0625 249.414062 L 421.226562 317.632812 C 428.5 321.835938 437.796875 319.34375 441.996094 312.066406 C 446.191406 304.800781 443.707031 295.5 436.429688 291.296875 Z M 318.269531 223.078125 "/>
</g>
</svg>
